<svg width="20" height="20" viewBox="0 0 20 20" fill="none" xmlns="http://www.w3.org/2000/svg">
<circle cx="10" cy="10" r="10" fill="white"/>
<path d="M9.38379 13.3965C9.39551 12.6992 9.47461 12.1484 9.62109 11.7441C9.76758 11.3398 10.0664 10.8916 10.5176 10.3994L11.6689 9.21289C12.1611 8.65625 12.4072 8.05859 12.4072 7.41992C12.4072 6.80469 12.2461 6.32422 11.9238 5.97852C11.6016 5.62695 11.1328 5.45117 10.5176 5.45117C9.91992 5.45117 9.43945 5.60938 9.07617 5.92578C8.71289 6.24219 8.53125 6.66699 8.53125 7.2002H6.90527C6.91699 6.25098 7.25391 5.48633 7.91602 4.90625C8.58398 4.32031 9.45117 4.02734 10.5176 4.02734C11.625 4.02734 12.4863 4.32617 13.1016 4.92383C13.7227 5.51562 14.0332 6.33008 14.0332 7.36719C14.0332 8.39258 13.5586 9.40332 12.6094 10.3994L11.6514 11.3486C11.2236 11.8232 11.0098 12.5059 11.0098 13.3965H9.38379ZM9.31348 16.1826C9.31348 15.9189 9.39258 15.6992 9.55078 15.5234C9.71484 15.3418 9.95508 15.251 10.2715 15.251C10.5879 15.251 10.8281 15.3418 10.9922 15.5234C11.1562 15.6992 11.2383 15.9189 11.2383 16.1826C11.2383 16.4463 11.1562 16.666 10.9922 16.8418C10.8281 17.0117 10.5879 17.0967 10.2715 17.0967C9.95508 17.0967 9.71484 17.0117 9.55078 16.8418C9.39258 16.666 9.31348 16.4463 9.31348 16.1826Z" fill="#2196F3"/>
</svg>
